<svg width="680" height="600" viewBox="0 0 680 600" xmlns="http://www.w3.org/2000/svg">
<title>Bowl of noodles illustration in orange-pink theme</title>
<defs>
<radialGradient id="glow2" cx="50%" cy="38%" r="65%">
<stop offset="0%" stop-color="#ff7a45" stop-opacity="0.22"/>
<stop offset="100%" stop-color="#ff4f9a" stop-opacity="0"/>
</radialGradient>
<linearGradient id="bowlGrad" x1="0%" y1="0%" x2="0%" y2="100%">
<stop offset="0%" stop-color="#ff6b35"/>
<stop offset="100%" stop-color="#e94f9c"/>
</linearGradient>
<linearGradient id="rimGrad" x1="0%" y1="0%" x2="100%" y2="0%">
<stop offset="0%" stop-color="#ff8a3d"/>
<stop offset="50%" stop-color="#ff5f8f"/>
<stop offset="100%" stop-color="#ff8a3d"/>
</linearGradient>
</defs>

<circle cx="340" cy="270" r="270" fill="url(#glow2)"/>

<ellipse cx="340" cy="430" rx="150" ry="22" fill="#000000" opacity="0.35"/>

<path d="M150 250 Q150 410 215 460 Q270 500 340 500 Q410 500 465 460 Q530 410 530 250 Z" fill="url(#bowlGrad)"/>
<path d="M150 250 Q150 410 215 460 Q270 500 340 500 Q410 500 465 460 Q530 410 530 250 Z" fill="#1a1a2e" opacity="0.15"/>

<ellipse cx="340" cy="252" rx="190" ry="34" fill="#2a1530"/>

<rect x="150" y="252" width="380" height="14" fill="url(#rimGrad)"/>
<ellipse cx="340" cy="252" rx="190" ry="34" fill="none" stroke="url(#rimGrad)" stroke-width="6"/>
<ellipse cx="340" cy="259" rx="190" ry="30" fill="none" stroke="#ff8a3d" stroke-width="3" opacity="0.5"/>

<ellipse cx="340" cy="248" rx="172" ry="26" fill="#a8421f"/>
<ellipse cx="340" cy="244" rx="172" ry="24" fill="#d4622f"/>

<path d="M210 240 Q250 220 290 240 Q330 218 370 240 Q410 220 450 240" stroke="#f4944a" stroke-width="6" fill="none" stroke-linecap="round" opacity="0.75"/>
<path d="M200 248 Q245 228 290 248 Q335 226 380 248 Q425 226 465 248" stroke="#e87a36" stroke-width="5" fill="none" stroke-linecap="round" opacity="0.65"/>
<path d="M215 256 Q260 238 305 256 Q350 234 395 256 Q430 238 460 256" stroke="#c9602a" stroke-width="4" fill="none" stroke-linecap="round" opacity="0.55"/>

<g transform="translate(255,220)">
<ellipse cx="0" cy="14" rx="26" ry="18" fill="#fdf6e3"/>
<path d="M-26 14 A26 18 0 0 1 26 14 Z" fill="#fffaf0"/>
<circle cx="0" cy="10" r="11" fill="#ffb136"/>
<circle cx="0" cy="10" r="11" fill="none" stroke="#e8941a" stroke-width="1"/>
</g>

<g transform="translate(400,222)">
<rect x="-22" y="0" width="44" height="16" rx="6" fill="#e9527f"/>
<rect x="-22" y="0" width="44" height="16" rx="6" fill="#f17a9c" opacity="0.5"/>
<rect x="-18" y="-2" width="36" height="6" rx="3" fill="#fbc4d4"/>
</g>
<g transform="translate(415,238)">
<rect x="-22" y="0" width="44" height="16" rx="6" fill="#e9527f"/>
<rect x="-22" y="0" width="44" height="16" rx="6" fill="#f17a9c" opacity="0.5"/>
<rect x="-18" y="-2" width="36" height="6" rx="3" fill="#fbc4d4"/>
</g>

<g transform="translate(310,232)">
<ellipse cx="0" cy="0" rx="8" ry="5" fill="#ff9d6e"/>
<ellipse cx="16" cy="-3" rx="8" ry="5" fill="#ffb088"/>
<ellipse cx="30" cy="2" rx="8" ry="5" fill="#ff9d6e"/>
<line x1="0" y1="0" x2="0" y2="-10" stroke="#e87a4e" stroke-width="2" stroke-linecap="round"/>
<line x1="16" y1="-3" x2="16" y2="-13" stroke="#e87a4e" stroke-width="2" stroke-linecap="round"/>
<line x1="30" y1="2" x2="30" y2="-8" stroke="#e87a4e" stroke-width="2" stroke-linecap="round"/>
</g>

<g opacity="0.8">
<path d="M260 130 Q255 100 268 80" stroke="#ffd7c2" stroke-width="5" fill="none" stroke-linecap="round"/>
<path d="M300 125 Q297 92 312 70" stroke="#ffd7c2" stroke-width="5" fill="none" stroke-linecap="round"/>
<path d="M380 125 Q384 92 372 70" stroke="#ffc2d9" stroke-width="5" fill="none" stroke-linecap="round"/>
<path d="M418 130 Q424 100 410 80" stroke="#ffc2d9" stroke-width="5" fill="none" stroke-linecap="round"/>
</g>

<g transform="translate(480,310) rotate(18)">
<rect x="-4" y="-90" width="8" height="180" rx="4" fill="#c96a4a"/>
</g>
<g transform="translate(500,300) rotate(18)">
<rect x="-4" y="-90" width="8" height="180" rx="4" fill="#e08560"/>
</g>

<g transform="translate(150,330)">
<circle cx="0" cy="0" r="5" fill="#ff9d4d"/>
</g>
<g transform="translate(175,360)">
<circle cx="0" cy="0" r="4" fill="#ff6fa0"/>
</g>
<g transform="translate(520,335)">
<circle cx="0" cy="0" r="5" fill="#ff6fa0"/>
</g>
<g transform="translate(500,365)">
<circle cx="0" cy="0" r="4" fill="#ff9d4d"/>
</g>
</svg>
